<mxfile host="Electron" agent="Mozilla/5.0 (Macintosh; Intel Mac OS X 10_15_7) AppleWebKit/537.36 (KHTML, like Gecko) draw.io/26.2.15 Chrome/134.0.6998.205 Electron/35.2.1 Safari/537.36" version="26.2.15">
  <diagram name="Page-1" id="45a6_D2YwnQw7eydpdMG">
    <mxGraphModel dx="1234" dy="898" grid="1" gridSize="10" guides="1" tooltips="1" connect="1" arrows="1" fold="1" page="1" pageScale="1" pageWidth="1169" pageHeight="827" math="0" shadow="0">
      <root>
        <mxCell id="0" />
        <mxCell id="1" parent="0" />
        <mxCell id="LE_znHIpe_kyLAJ8eU4S-43" value="With Fork Following" style="swimlane;whiteSpace=wrap;html=1;container=0;fontSize=17;" parent="1" vertex="1">
          <mxGeometry x="140" y="60" width="400" height="640" as="geometry" />
        </mxCell>
        <mxCell id="LE_znHIpe_kyLAJ8eU4S-19" style="edgeStyle=orthogonalEdgeStyle;rounded=0;orthogonalLoop=1;jettySize=auto;html=1;exitX=1;exitY=1;exitDx=0;exitDy=0;entryX=0.5;entryY=0;entryDx=0;entryDy=0;curved=1;fontSize=17;" parent="1" source="LE_znHIpe_kyLAJ8eU4S-23" target="LE_znHIpe_kyLAJ8eU4S-27" edge="1">
          <mxGeometry relative="1" as="geometry">
            <Array as="points">
              <mxPoint x="718" y="170" />
              <mxPoint x="750" y="170" />
              <mxPoint x="750" y="200" />
              <mxPoint x="770" y="200" />
            </Array>
          </mxGeometry>
        </mxCell>
        <mxCell id="LE_znHIpe_kyLAJ8eU4S-20" value="execve()" style="edgeLabel;html=1;align=center;verticalAlign=middle;resizable=0;points=[];fontSize=17;" parent="LE_znHIpe_kyLAJ8eU4S-19" vertex="1" connectable="0">
          <mxGeometry x="0.1999" y="-2" relative="1" as="geometry">
            <mxPoint as="offset" />
          </mxGeometry>
        </mxCell>
        <mxCell id="LE_znHIpe_kyLAJ8eU4S-21" style="edgeStyle=orthogonalEdgeStyle;rounded=0;orthogonalLoop=1;jettySize=auto;html=1;exitX=0;exitY=1;exitDx=0;exitDy=0;entryX=0.5;entryY=0;entryDx=0;entryDy=0;curved=1;fontSize=17;" parent="1" source="LE_znHIpe_kyLAJ8eU4S-23" target="LE_znHIpe_kyLAJ8eU4S-24" edge="1">
          <mxGeometry relative="1" as="geometry" />
        </mxCell>
        <mxCell id="LE_znHIpe_kyLAJ8eU4S-23" value="shell" style="ellipse;whiteSpace=wrap;html=1;aspect=fixed;fontSize=17;" parent="1" vertex="1">
          <mxGeometry x="650" y="120" width="80" height="80" as="geometry" />
        </mxCell>
        <mxCell id="LE_znHIpe_kyLAJ8eU4S-24" value="PID&lt;div&gt;12672&lt;/div&gt;" style="ellipse;whiteSpace=wrap;html=1;aspect=fixed;fontSize=17;" parent="1" vertex="1">
          <mxGeometry x="590" y="230" width="80" height="80" as="geometry" />
        </mxCell>
        <mxCell id="LE_znHIpe_kyLAJ8eU4S-25" style="edgeStyle=orthogonalEdgeStyle;rounded=0;orthogonalLoop=1;jettySize=auto;html=1;exitX=0.5;exitY=1;exitDx=0;exitDy=0;entryX=0.5;entryY=0;entryDx=0;entryDy=0;curved=1;fontSize=17;" parent="1" source="LE_znHIpe_kyLAJ8eU4S-27" target="LE_znHIpe_kyLAJ8eU4S-30" edge="1">
          <mxGeometry relative="1" as="geometry">
            <Array as="points">
              <mxPoint x="820" y="310" />
              <mxPoint x="820" y="320" />
              <mxPoint x="845" y="320" />
            </Array>
          </mxGeometry>
        </mxCell>
        <mxCell id="LE_znHIpe_kyLAJ8eU4S-26" value="execve()" style="edgeLabel;html=1;align=center;verticalAlign=middle;resizable=0;points=[];fontSize=17;" parent="LE_znHIpe_kyLAJ8eU4S-25" vertex="1" connectable="0">
          <mxGeometry x="0.22" y="-6" relative="1" as="geometry">
            <mxPoint x="-4" y="6" as="offset" />
          </mxGeometry>
        </mxCell>
        <mxCell id="LE_znHIpe_kyLAJ8eU4S-27" value="&lt;font face=&quot;Courier New&quot;&gt;addrfilter&lt;/font&gt;" style="ellipse;whiteSpace=wrap;html=1;aspect=fixed;fontSize=17;" parent="1" vertex="1">
          <mxGeometry x="740" y="230" width="80" height="80" as="geometry" />
        </mxCell>
        <mxCell id="LE_znHIpe_kyLAJ8eU4S-28" style="edgeStyle=orthogonalEdgeStyle;rounded=0;orthogonalLoop=1;jettySize=auto;html=1;exitX=0;exitY=1;exitDx=0;exitDy=0;entryX=0.5;entryY=0;entryDx=0;entryDy=0;curved=1;fontSize=17;" parent="1" source="LE_znHIpe_kyLAJ8eU4S-30" target="LE_znHIpe_kyLAJ8eU4S-35" edge="1">
          <mxGeometry relative="1" as="geometry" />
        </mxCell>
        <mxCell id="LE_znHIpe_kyLAJ8eU4S-29" value="fork()" style="edgeLabel;html=1;align=center;verticalAlign=middle;resizable=0;points=[];fontSize=17;" parent="LE_znHIpe_kyLAJ8eU4S-28" vertex="1" connectable="0">
          <mxGeometry x="-0.3824" y="1" relative="1" as="geometry">
            <mxPoint as="offset" />
          </mxGeometry>
        </mxCell>
        <mxCell id="LE_znHIpe_kyLAJ8eU4S-30" value="FA" style="ellipse;whiteSpace=wrap;html=1;aspect=fixed;strokeWidth=3;strokeColor=light-dark(#9c0000, #ededed);fillColor=#FFCCCC;fontSize=17;" parent="1" vertex="1">
          <mxGeometry x="805" y="360" width="80" height="80" as="geometry" />
        </mxCell>
        <mxCell id="LE_znHIpe_kyLAJ8eU4S-31" style="edgeStyle=orthogonalEdgeStyle;rounded=0;orthogonalLoop=1;jettySize=auto;html=1;exitX=0.5;exitY=1;exitDx=0;exitDy=0;curved=1;fontSize=17;" parent="1" source="LE_znHIpe_kyLAJ8eU4S-33" target="LE_znHIpe_kyLAJ8eU4S-36" edge="1">
          <mxGeometry relative="1" as="geometry" />
        </mxCell>
        <mxCell id="LE_znHIpe_kyLAJ8eU4S-32" value="fork()" style="edgeLabel;html=1;align=center;verticalAlign=middle;resizable=0;points=[];fontSize=17;" parent="LE_znHIpe_kyLAJ8eU4S-31" vertex="1" connectable="0">
          <mxGeometry x="-0.65" y="4" relative="1" as="geometry">
            <mxPoint as="offset" />
          </mxGeometry>
        </mxCell>
        <mxCell id="LE_znHIpe_kyLAJ8eU4S-33" value="Fork of FA" style="ellipse;whiteSpace=wrap;html=1;aspect=fixed;strokeWidth=1;strokeColor=light-dark(#000000,#EDEDED);fontSize=17;" parent="1" vertex="1">
          <mxGeometry x="840" y="460" width="80" height="80" as="geometry" />
        </mxCell>
        <mxCell id="LE_znHIpe_kyLAJ8eU4S-34" value="fork()" style="edgeStyle=orthogonalEdgeStyle;rounded=0;orthogonalLoop=1;jettySize=auto;html=1;exitX=1;exitY=1;exitDx=0;exitDy=0;entryX=0.6;entryY=0.031;entryDx=0;entryDy=0;entryPerimeter=0;curved=1;fontSize=17;" parent="1" source="LE_znHIpe_kyLAJ8eU4S-30" target="LE_znHIpe_kyLAJ8eU4S-33" edge="1">
          <mxGeometry relative="1" as="geometry" />
        </mxCell>
        <mxCell id="LE_znHIpe_kyLAJ8eU4S-35" value="Fork of FA" style="ellipse;whiteSpace=wrap;html=1;aspect=fixed;strokeWidth=1;strokeColor=light-dark(#000000,#EDEDED);fontSize=17;" parent="1" vertex="1">
          <mxGeometry x="710" y="474" width="80" height="80" as="geometry" />
        </mxCell>
        <mxCell id="LE_znHIpe_kyLAJ8eU4S-36" value="Fork of FA" style="ellipse;whiteSpace=wrap;html=1;aspect=fixed;strokeWidth=1;strokeColor=light-dark(#000000,#EDEDED);fontSize=17;" parent="1" vertex="1">
          <mxGeometry x="870" y="570" width="80" height="80" as="geometry" />
        </mxCell>
        <mxCell id="LE_znHIpe_kyLAJ8eU4S-37" style="edgeStyle=orthogonalEdgeStyle;rounded=0;orthogonalLoop=1;jettySize=auto;html=1;exitX=0.5;exitY=0;exitDx=0;exitDy=0;endArrow=none;startFill=0;dashed=1;fontSize=17;" parent="1" edge="1">
          <mxGeometry relative="1" as="geometry">
            <mxPoint x="689.5" y="80" as="targetPoint" />
            <mxPoint x="689.5" y="120" as="sourcePoint" />
          </mxGeometry>
        </mxCell>
        <mxCell id="LE_znHIpe_kyLAJ8eU4S-2" value="PID&lt;div&gt;12672&lt;/div&gt;" style="ellipse;whiteSpace=wrap;html=1;aspect=fixed;container=0;fontSize=17;" parent="1" vertex="1">
          <mxGeometry x="165" y="220" width="80" height="80" as="geometry" />
        </mxCell>
        <mxCell id="LE_znHIpe_kyLAJ8eU4S-4" style="edgeStyle=orthogonalEdgeStyle;rounded=0;orthogonalLoop=1;jettySize=auto;html=1;exitX=1;exitY=1;exitDx=0;exitDy=0;entryX=0.5;entryY=0;entryDx=0;entryDy=0;curved=1;fontSize=17;" parent="1" source="LE_znHIpe_kyLAJ8eU4S-1" target="LE_znHIpe_kyLAJ8eU4S-3" edge="1">
          <mxGeometry relative="1" as="geometry">
            <Array as="points">
              <mxPoint x="283" y="177" />
              <mxPoint x="315" y="177" />
              <mxPoint x="315" y="207" />
              <mxPoint x="335" y="207" />
            </Array>
          </mxGeometry>
        </mxCell>
        <mxCell id="LE_znHIpe_kyLAJ8eU4S-5" value="execve()" style="edgeLabel;html=1;align=center;verticalAlign=middle;resizable=0;points=[];container=0;fontSize=17;" parent="LE_znHIpe_kyLAJ8eU4S-4" vertex="1" connectable="0">
          <mxGeometry x="0.1999" y="-2" relative="1" as="geometry">
            <mxPoint as="offset" />
          </mxGeometry>
        </mxCell>
        <mxCell id="LE_znHIpe_kyLAJ8eU4S-17" style="edgeStyle=orthogonalEdgeStyle;rounded=0;orthogonalLoop=1;jettySize=auto;html=1;exitX=0;exitY=1;exitDx=0;exitDy=0;curved=1;entryX=0.5;entryY=0;entryDx=0;entryDy=0;fontSize=17;" parent="1" target="LE_znHIpe_kyLAJ8eU4S-2" edge="1">
          <mxGeometry relative="1" as="geometry">
            <mxPoint x="236.71572875252923" y="175.28427124747077" as="sourcePoint" />
            <mxPoint x="205" y="217" as="targetPoint" />
          </mxGeometry>
        </mxCell>
        <mxCell id="LE_znHIpe_kyLAJ8eU4S-18" style="edgeStyle=orthogonalEdgeStyle;rounded=0;orthogonalLoop=1;jettySize=auto;html=1;exitX=0.5;exitY=0;exitDx=0;exitDy=0;endArrow=none;startFill=0;dashed=1;fontSize=17;" parent="1" source="LE_znHIpe_kyLAJ8eU4S-1" edge="1">
          <mxGeometry relative="1" as="geometry">
            <mxPoint x="255" y="87" as="targetPoint" />
          </mxGeometry>
        </mxCell>
        <mxCell id="LE_znHIpe_kyLAJ8eU4S-1" value="shell" style="ellipse;whiteSpace=wrap;html=1;aspect=fixed;container=0;fontSize=17;" parent="1" vertex="1">
          <mxGeometry x="215" y="127" width="80" height="80" as="geometry" />
        </mxCell>
        <mxCell id="LE_znHIpe_kyLAJ8eU4S-7" style="edgeStyle=orthogonalEdgeStyle;rounded=0;orthogonalLoop=1;jettySize=auto;html=1;exitX=0.5;exitY=1;exitDx=0;exitDy=0;entryX=0.5;entryY=0;entryDx=0;entryDy=0;curved=1;fontSize=17;" parent="1" source="LE_znHIpe_kyLAJ8eU4S-3" target="LE_znHIpe_kyLAJ8eU4S-6" edge="1">
          <mxGeometry relative="1" as="geometry">
            <Array as="points">
              <mxPoint x="385" y="317" />
              <mxPoint x="385" y="327" />
              <mxPoint x="410" y="327" />
            </Array>
          </mxGeometry>
        </mxCell>
        <mxCell id="LE_znHIpe_kyLAJ8eU4S-9" value="execve()" style="edgeLabel;html=1;align=center;verticalAlign=middle;resizable=0;points=[];container=0;fontSize=17;" parent="LE_znHIpe_kyLAJ8eU4S-7" vertex="1" connectable="0">
          <mxGeometry x="0.22" y="-6" relative="1" as="geometry">
            <mxPoint x="-4" y="6" as="offset" />
          </mxGeometry>
        </mxCell>
        <mxCell id="LE_znHIpe_kyLAJ8eU4S-3" value="&lt;font face=&quot;Courier New&quot;&gt;addrfilter&lt;/font&gt;" style="ellipse;whiteSpace=wrap;html=1;aspect=fixed;container=0;fontSize=17;" parent="1" vertex="1">
          <mxGeometry x="305" y="237" width="75" height="75" as="geometry" />
        </mxCell>
        <mxCell id="LE_znHIpe_kyLAJ8eU4S-13" style="edgeStyle=orthogonalEdgeStyle;rounded=0;orthogonalLoop=1;jettySize=auto;html=1;exitX=0;exitY=1;exitDx=0;exitDy=0;entryX=0.5;entryY=0;entryDx=0;entryDy=0;curved=1;fontSize=17;" parent="1" source="LE_znHIpe_kyLAJ8eU4S-6" target="LE_znHIpe_kyLAJ8eU4S-11" edge="1">
          <mxGeometry relative="1" as="geometry" />
        </mxCell>
        <mxCell id="LE_znHIpe_kyLAJ8eU4S-15" value="fork()" style="edgeLabel;html=1;align=center;verticalAlign=middle;resizable=0;points=[];container=0;fontSize=17;" parent="LE_znHIpe_kyLAJ8eU4S-13" vertex="1" connectable="0">
          <mxGeometry x="-0.3824" y="1" relative="1" as="geometry">
            <mxPoint as="offset" />
          </mxGeometry>
        </mxCell>
        <mxCell id="LE_znHIpe_kyLAJ8eU4S-6" value="FA*" style="ellipse;whiteSpace=wrap;html=1;aspect=fixed;strokeWidth=3;strokeColor=light-dark(#9c0000, #ededed);container=0;fillColor=#FFCCCC;fontSize=17;" parent="1" vertex="1">
          <mxGeometry x="370" y="367" width="80" height="80" as="geometry" />
        </mxCell>
        <mxCell id="LE_znHIpe_kyLAJ8eU4S-14" style="edgeStyle=orthogonalEdgeStyle;rounded=0;orthogonalLoop=1;jettySize=auto;html=1;exitX=0.5;exitY=1;exitDx=0;exitDy=0;curved=1;fontSize=17;" parent="1" source="LE_znHIpe_kyLAJ8eU4S-8" target="LE_znHIpe_kyLAJ8eU4S-12" edge="1">
          <mxGeometry relative="1" as="geometry" />
        </mxCell>
        <mxCell id="LE_znHIpe_kyLAJ8eU4S-16" value="fork()" style="edgeLabel;html=1;align=center;verticalAlign=middle;resizable=0;points=[];container=0;fontSize=17;" parent="LE_znHIpe_kyLAJ8eU4S-14" vertex="1" connectable="0">
          <mxGeometry x="-0.65" y="4" relative="1" as="geometry">
            <mxPoint as="offset" />
          </mxGeometry>
        </mxCell>
        <mxCell id="LE_znHIpe_kyLAJ8eU4S-8" value="Fork of&lt;div&gt;FA&lt;/div&gt;" style="ellipse;whiteSpace=wrap;html=1;aspect=fixed;strokeWidth=3;strokeColor=light-dark(#9c0000, #ededed);container=0;fillColor=#FFCCCC;fontSize=17;" parent="1" vertex="1">
          <mxGeometry x="405" y="467" width="80" height="80" as="geometry" />
        </mxCell>
        <mxCell id="LE_znHIpe_kyLAJ8eU4S-10" value="fork()" style="edgeStyle=orthogonalEdgeStyle;rounded=0;orthogonalLoop=1;jettySize=auto;html=1;exitX=1;exitY=1;exitDx=0;exitDy=0;entryX=0.6;entryY=0.031;entryDx=0;entryDy=0;entryPerimeter=0;curved=1;fontSize=17;" parent="1" source="LE_znHIpe_kyLAJ8eU4S-6" target="LE_znHIpe_kyLAJ8eU4S-8" edge="1">
          <mxGeometry relative="1" as="geometry" />
        </mxCell>
        <mxCell id="LE_znHIpe_kyLAJ8eU4S-11" value="Fork of&lt;div&gt;FA&lt;/div&gt;" style="ellipse;whiteSpace=wrap;html=1;aspect=fixed;strokeWidth=3;strokeColor=light-dark(#9c0000, #ededed);container=0;fillColor=#FFCCCC;fontSize=17;" parent="1" vertex="1">
          <mxGeometry x="275" y="481" width="80" height="80" as="geometry" />
        </mxCell>
        <mxCell id="LE_znHIpe_kyLAJ8eU4S-12" value="Fork of FA" style="ellipse;whiteSpace=wrap;html=1;aspect=fixed;strokeWidth=3;strokeColor=light-dark(#9c0000, #ededed);container=0;fillColor=#FFCCCC;fontSize=17;" parent="1" vertex="1">
          <mxGeometry x="435" y="577" width="80" height="80" as="geometry" />
        </mxCell>
        <mxCell id="LE_znHIpe_kyLAJ8eU4S-83" value="Without Fork Following" style="swimlane;whiteSpace=wrap;html=1;container=0;fontSize=17;" parent="1" vertex="1">
          <mxGeometry x="570" y="60" width="400" height="640" as="geometry" />
        </mxCell>
        <mxCell id="LE_znHIpe_kyLAJ8eU4S-38" value="&lt;font style=&quot;font-size: 16px;&quot;&gt;Unprotected&amp;nbsp;&lt;/font&gt;&lt;div&gt;&lt;font style=&quot;font-size: 16px;&quot;&gt;Process&lt;/font&gt;&lt;/div&gt;" style="ellipse;whiteSpace=wrap;html=1;aspect=fixed;fontSize=17;" parent="1" vertex="1">
          <mxGeometry x="940" y="720" width="90" height="90" as="geometry" />
        </mxCell>
        <mxCell id="LE_znHIpe_kyLAJ8eU4S-39" value="Protected&lt;div&gt;Process&lt;/div&gt;" style="ellipse;whiteSpace=wrap;html=1;aspect=fixed;strokeWidth=3;strokeColor=light-dark(#9c0000, #ededed);fillColor=#FFCCCC;fontSize=16;" parent="1" vertex="1">
          <mxGeometry x="835" y="720" width="90" height="90" as="geometry" />
        </mxCell>
        <mxCell id="dayEpoQBVz6itDC-RxhQ-1" value="&lt;font style=&quot;font-size: 17px;&quot;&gt;*FA = Filtered Application&lt;/font&gt;" style="text;html=1;align=center;verticalAlign=middle;resizable=0;points=[];autosize=1;strokeColor=none;fillColor=none;fontFamily=Helvetica;fontStyle=4" vertex="1" parent="1">
          <mxGeometry x="610" y="750" width="210" height="30" as="geometry" />
        </mxCell>
      </root>
    </mxGraphModel>
  </diagram>
</mxfile>
